<?xml version="1.0" encoding="UTF-8"?>
<svg xmlns="http://www.w3.org/2000/svg" xmlns:xlink="http://www.w3.org/1999/xlink" width="16pt" height="16pt" viewBox="0 0 16 16" version="1.1">
<g id="surface1">
<path style=" stroke:none;fill-rule:nonzero;fill:rgb(100%,100%,100%);fill-opacity:1;" d="M 8 2.667969 C 8.707031 2.667969 9.386719 2.949219 9.886719 3.449219 C 10.386719 3.949219 10.667969 4.625 10.667969 5.332031 C 10.667969 6.039062 10.386719 6.71875 9.886719 7.21875 C 9.386719 7.71875 8.707031 8 8 8 C 7.292969 8 6.613281 7.71875 6.113281 7.21875 C 5.613281 6.71875 5.332031 6.039062 5.332031 5.332031 C 5.332031 4.625 5.613281 3.949219 6.113281 3.449219 C 6.613281 2.949219 7.292969 2.667969 8 2.667969 Z M 8 9.332031 C 10.945312 9.332031 13.332031 10.527344 13.332031 12 L 13.332031 13.332031 L 2.667969 13.332031 L 2.667969 12 C 2.667969 10.527344 5.054688 9.332031 8 9.332031 Z M 8 9.332031 "/>
</g>
</svg>
