<?xml version="1.0" encoding="UTF-8"?>
<svg xmlns="http://www.w3.org/2000/svg" xmlns:xlink="http://www.w3.org/1999/xlink" width="16pt" height="16pt" viewBox="0 0 16 16" version="1.1">
<g id="surface1">
<path style=" stroke:none;fill-rule:nonzero;fill:rgb(100%,100%,100%);fill-opacity:1;" d="M 18.261719 16.523438 L 13.78125 12.042969 C 14.605469 10.78125 14.9375 9.257812 14.710938 7.769531 C 14.480469 6.28125 13.710938 4.929688 12.539062 3.972656 C 11.367188 3.023438 9.890625 2.539062 8.382812 2.617188 C 6.878906 2.691406 5.457031 3.324219 4.386719 4.386719 C 3.324219 5.457031 2.691406 6.878906 2.617188 8.382812 C 2.539062 9.890625 3.023438 11.367188 3.972656 12.539062 C 4.929688 13.710938 6.28125 14.480469 7.769531 14.710938 C 9.257812 14.9375 10.78125 14.605469 12.042969 13.78125 L 16.523438 18.261719 Z M 4.347656 8.695312 C 4.347656 6.296875 6.296875 4.347656 8.695312 4.347656 C 11.09375 4.347656 13.042969 6.296875 13.042969 8.695312 C 13.042969 11.09375 11.09375 13.042969 8.695312 13.042969 C 6.296875 13.042969 4.347656 11.09375 4.347656 8.695312 Z M 4.347656 8.695312 "/>
</g>
</svg>
